<?xml version="1.0" encoding="UTF-8"?>
<svg xmlns="http://www.w3.org/2000/svg" class="nunki ad-container" data-theme="editorial-light" data-diagram-type="ad-container" viewBox="0 0 1342 992" width="1342" height="992" data-width="1342" data-height="992" role="img" aria-labelledby="ad-title ad-desc"><title id="ad-title">Polyglot Shop — containers</title><desc id="ad-desc">Container diagram with 10 nodes and 11 connections.</desc><style>.nunki[data-theme="editorial-light"]{--ad-canvas:#F8F9FA;--ad-card:#FFFFFF;--ad-card-recessed:#F4F6F8;--ad-border:#E2E8F0;--ad-text:#0F172A;--ad-muted:#64748B;--ad-edge:#A3B0C2;--ad-edge-strong:#334155;--ad-zone-fill:#F1F4F7;--ad-zone-stroke:#D5DDE7;--ad-badge:#F8FAFC;--ad-accent:#4F46E5;--ad-accent-tint:#F4F4FD;--ad-accent-soft:#C1BEF6;color-scheme:light}
.nunki[data-theme="editorial-dark"]{--ad-canvas:#0B0F17;--ad-card:#151D2C;--ad-card-recessed:#111827;--ad-border:#223049;--ad-text:#F8FAFC;--ad-muted:#94A3B8;--ad-edge:#4A5B77;--ad-edge-strong:#CBD5E1;--ad-zone-fill:#0F1521;--ad-zone-stroke:#1E2A40;--ad-badge:#101826;--ad-accent:#818CF8;--ad-accent-tint:#242D49;--ad-accent-soft:#464F88;color-scheme:dark}
.nunki{font-family:-apple-system,BlinkMacSystemFont,"Segoe UI",Roboto,"Inter",sans-serif;-webkit-font-smoothing:antialiased}
.nunki text{font-family:inherit}
.nunki .ad-canvas{fill:var(--ad-canvas)}
.nunki .ad-eyebrow{fill:var(--ad-muted);font:500 11px ui-monospace,SFMono-Regular,Menlo,Consolas,monospace;letter-spacing:.12em}
.nunki .ad-title{fill:var(--ad-text);font-size:26px;font-weight:650;letter-spacing:-.01em}
.nunki .ad-subtitle{fill:var(--ad-muted);font-size:15px}
.nunki .ad-zone-box{fill:var(--ad-zone-fill);stroke:var(--ad-zone-stroke);stroke-width:1}
.nunki .b-trust .ad-zone-box{stroke-dasharray:5 4}
.nunki .b-third .ad-zone-box{fill:none;stroke-dasharray:2 3}
.nunki .b-client .ad-zone-box{fill:none}
.nunki .ad-zone-label{fill:var(--ad-muted);font:600 10.5px ui-monospace,SFMono-Regular,Menlo,Consolas,monospace;letter-spacing:.1em}
.nunki .ad-zone-kind{fill:var(--ad-muted);opacity:.7;font:500 9.5px ui-monospace,SFMono-Regular,Menlo,Consolas,monospace;letter-spacing:.1em;text-anchor:end}
.nunki .ad-edge-line{fill:none;stroke:var(--ad-edge);stroke-width:1.25;stroke-linejoin:round;marker-end:url(#ad-arrow)}
.nunki .ad-edge-hit{fill:none;stroke:transparent;stroke-width:12}
.nunki .t-read .ad-edge-line{marker-end:url(#ad-open);stroke-width:1.1}
.nunki .t-write .ad-edge-line{stroke-width:1.7}
.nunki .t-event .ad-edge-line{marker-start:url(#ad-dot)}
.nunki .is-dashed .ad-edge-line{stroke-dasharray:6 4}
.nunki .is-dotted .ad-edge-line{stroke-dasharray:1.5 4;stroke-linecap:round;stroke-width:1.6}
.nunki .is-primary .ad-edge-line{stroke:var(--ad-accent);stroke-width:2;marker-end:url(#ad-arrow-accent)}
.nunki .is-primary.t-read .ad-edge-line{marker-end:url(#ad-open-accent)}
.nunki .is-primary.t-event .ad-edge-line{marker-start:url(#ad-dot-accent)}
.nunki .ad-mk{fill:var(--ad-edge)}
.nunki .ad-mk-strong{fill:var(--ad-edge-strong)}
.nunki .ad-mk-accent{fill:var(--ad-accent)}
.nunki .ad-mk-open{fill:none;stroke:var(--ad-edge);stroke-width:1.4}
.nunki .ad-mk-open-strong{fill:none;stroke:var(--ad-edge-strong);stroke-width:1.4}
.nunki .ad-mk-open-accent{fill:none;stroke:var(--ad-accent);stroke-width:1.6}
.nunki .ad-edge-label rect{fill:var(--ad-canvas)}
.nunki .ad-edge-label text{fill:var(--ad-muted);font-size:11px;font-weight:500;text-anchor:middle}
.nunki .ad-edge-label.is-primary text{fill:var(--ad-accent)}
.nunki .ad-card{fill:var(--ad-card);stroke:var(--ad-border);stroke-width:1}
.nunki .b-storage .ad-card{fill:var(--ad-card-recessed)}
.nunki .b-third .ad-card{stroke-dasharray:4 3}
.nunki .is-focal .ad-card{fill:var(--ad-accent-tint);stroke:var(--ad-accent);stroke-width:1.5}
.nunki .ad-node-label{fill:var(--ad-text);font-size:14px;font-weight:600}
.nunki .ad-node-subtitle{fill:var(--ad-muted);font-size:12px}
.nunki .ad-badge{fill:var(--ad-badge);stroke:var(--ad-border);stroke-width:1}
.nunki .ad-badge-text{fill:var(--ad-muted);font:11px ui-monospace,SFMono-Regular,Menlo,Consolas,monospace}
.nunki .ad-evidence-glyph{fill:var(--ad-muted);opacity:.55;font:600 10px ui-monospace,SFMono-Regular,Menlo,Consolas,monospace;text-anchor:end}
.nunki .ad-legend-glyph{text-anchor:start;opacity:.8}
.nunki .is-focal .ad-evidence-glyph{fill:var(--ad-accent);opacity:.8}
.nunki .ad-rule{stroke:var(--ad-border);stroke-width:1}
.nunki .ad-legend-text{fill:var(--ad-muted);font-size:12px}
.nunki .ad-legend-focal{fill:var(--ad-accent-tint);stroke:var(--ad-accent);stroke-width:1.5}
.nunki .ad-footer{fill:var(--ad-muted);opacity:.8;font:11px ui-monospace,SFMono-Regular,Menlo,Consolas,monospace}
.nunki .ad-edge-detail{fill:var(--ad-muted);opacity:.85;font:10.5px ui-monospace,SFMono-Regular,Menlo,Consolas,monospace;text-anchor:middle}
.nunki .ad-lifeline{stroke:var(--ad-border);stroke-width:1.2;stroke-dasharray:4 4}
.nunki .is-reply .ad-edge-line{marker-end:url(#ad-open)}
.nunki .is-primary.is-reply .ad-edge-line{marker-end:url(#ad-open-accent)}
.nunki .ad-edge.is-reply.is-lit:not(.is-primary) .ad-edge-line{marker-end:url(#ad-open-strong)}
.nunki .ad-state-mark{fill:var(--ad-text)}
.nunki .is-focal .ad-state-mark{fill:var(--ad-accent)}
.nunki .ad-state-inner{fill:none;stroke:var(--ad-border);stroke-width:1}
.nunki .is-focal .ad-state-inner{stroke:var(--ad-accent)}
.nunki .ad-rows-rule{stroke:var(--ad-border);stroke-width:1}
.nunki .ad-row-name{fill:var(--ad-text);font-size:12px}
.nunki .is-key .ad-row-name{font-weight:600}
.nunki .ad-row-key{fill:var(--ad-accent);font:600 9px ui-monospace,SFMono-Regular,Menlo,Consolas,monospace;letter-spacing:.04em}
.nunki .ad-row-type{fill:var(--ad-muted);font:11px ui-monospace,SFMono-Regular,Menlo,Consolas,monospace;text-anchor:end}
.nunki.ad-er g.ad-edge.ad-edge .ad-edge-line{marker-start:none;marker-end:none}
.nunki.ad-er g.ad-edge.c-s-one .ad-edge-line{marker-start:url(#ad-one)}
.nunki.ad-er g.ad-edge.c-s-many .ad-edge-line{marker-start:url(#ad-many)}
.nunki.ad-er g.ad-edge.c-t-one .ad-edge-line{marker-end:url(#ad-one)}
.nunki.ad-er g.ad-edge.c-t-many .ad-edge-line{marker-end:url(#ad-many)}
.nunki .ad-mk-crow{fill:none;stroke:var(--ad-edge-strong);stroke-width:1.4;stroke-linecap:round}
</style><defs><marker id="ad-one" viewBox="0 0 14 14" refX="14" refY="7" markerWidth="14" markerHeight="14" orient="auto-start-reverse" markerUnits="userSpaceOnUse"><path class="ad-mk-crow" d="M8,1 L8,13"/></marker><marker id="ad-many" viewBox="0 0 14 14" refX="14" refY="7" markerWidth="14" markerHeight="14" orient="auto-start-reverse" markerUnits="userSpaceOnUse"><path class="ad-mk-crow" d="M2,7 L14,1 M2,7 L14,13"/></marker><marker id="ad-arrow" viewBox="0 0 10 10" refX="9" refY="5" markerWidth="7" markerHeight="7" orient="auto-start-reverse" markerUnits="userSpaceOnUse"><path class="ad-mk" d="M0,1 L9,5 L0,9 z"/></marker><marker id="ad-arrow-strong" viewBox="0 0 10 10" refX="9" refY="5" markerWidth="7" markerHeight="7" orient="auto-start-reverse" markerUnits="userSpaceOnUse"><path class="ad-mk-strong" d="M0,1 L9,5 L0,9 z"/></marker><marker id="ad-arrow-accent" viewBox="0 0 10 10" refX="9" refY="5" markerWidth="8" markerHeight="8" orient="auto-start-reverse" markerUnits="userSpaceOnUse"><path class="ad-mk-accent" d="M0,1 L9,5 L0,9 z"/></marker><marker id="ad-open" viewBox="0 0 10 10" refX="9" refY="5" markerWidth="8" markerHeight="8" orient="auto-start-reverse" markerUnits="userSpaceOnUse"><path class="ad-mk-open" d="M1,1 L9,5 L1,9"/></marker><marker id="ad-open-strong" viewBox="0 0 10 10" refX="9" refY="5" markerWidth="8" markerHeight="8" orient="auto-start-reverse" markerUnits="userSpaceOnUse"><path class="ad-mk-open-strong" d="M1,1 L9,5 L1,9"/></marker><marker id="ad-open-accent" viewBox="0 0 10 10" refX="9" refY="5" markerWidth="8" markerHeight="8" orient="auto-start-reverse" markerUnits="userSpaceOnUse"><path class="ad-mk-open-accent" d="M1,1 L9,5 L1,9"/></marker><marker id="ad-dot" viewBox="0 0 10 10" refX="5" refY="5" markerWidth="6" markerHeight="6" markerUnits="userSpaceOnUse"><circle class="ad-mk" cx="5" cy="5" r="4"/></marker><marker id="ad-dot-accent" viewBox="0 0 10 10" refX="5" refY="5" markerWidth="6" markerHeight="6" markerUnits="userSpaceOnUse"><circle class="ad-mk-accent" cx="5" cy="5" r="4"/></marker></defs><rect class="ad-canvas" x="0" y="0" width="1342" height="992"/><g id="ad-viewport" class="ad-viewport"><g class="ad-header"><text class="ad-eyebrow" x="48" y="58">CONTAINER DIAGRAM</text><text class="ad-title" x="48" y="94">Polyglot Shop — containers</text><text class="ad-subtitle" x="48" y="120">A small checkout platform used as the nunki demo repository</text></g><g class="ad-zones"><g class="ad-zone b-trust" data-id="platform"><rect class="ad-zone-box" x="403.2" y="216.0" width="236.0" height="560.0" rx="10"/><text class="ad-zone-label" x="423.2" y="241.0">POLYGLOT SHOP PLATFORM</text><title>Services deployed from this repository</title></g><g class="ad-zone b-client" data-id="clients"><rect class="ad-zone-box" x="48.1" y="416.0" width="236.0" height="160.0" rx="10"/><text class="ad-zone-label" x="68.1" y="441.0">CLIENTS</text><text class="ad-zone-kind" x="264.1" y="441.0">CLIENT</text><title>User-facing applications</title></g><g class="ad-zone b-storage" data-id="data"><rect class="ad-zone-box" x="1057.9" y="152.0" width="236.0" height="408.0" rx="10"/><text class="ad-zone-label" x="1077.9" y="177.0">DATA &amp; MESSAGING</text><text class="ad-zone-kind" x="1273.9" y="177.0">STORAGE</text><title>Stateful infrastructure</title></g><g class="ad-zone b-third" data-id="external"><rect class="ad-zone-box" x="1057.9" y="616.0" width="236.0" height="224.0" rx="10"/><text class="ad-zone-label" x="1077.9" y="641.0">THIRD-PARTY SERVICES</text><title>Vendor APIs outside the trust boundary</title></g></g><g class="ad-edges"><g class="ad-edge t-event is-dotted" data-id="api-gateway--kafka" data-source="api-gateway" data-target="kafka"><path class="ad-edge-hit" d="M619.2,332.0H780.5Q788.5,332.0 788.5,340.0V468.0Q788.5,476.0 796.5,476.0H1077.9"/><path class="ad-edge-line" d="M619.2,332.0H780.5Q788.5,332.0 788.5,340.0V468.0Q788.5,476.0 796.5,476.0H1077.9"/></g><g class="ad-edge t-write" data-id="api-gateway--postgres" data-source="api-gateway" data-target="postgres"><path class="ad-edge-hit" d="M619.2,284.0H820.5Q828.5,284.0 828.5,276.0V223.2Q828.5,215.2 836.5,215.2H1077.9"/><path class="ad-edge-line" d="M619.2,284.0H820.5Q828.5,284.0 828.5,276.0V223.2Q828.5,215.2 836.5,215.2H1077.9"/></g><g class="ad-edge t-write" data-id="api-gateway--redis" data-source="api-gateway" data-target="redis"><path class="ad-edge-hit" d="M619.2,308.0H800.5Q808.5,308.0 808.5,316.0V360.0Q808.5,368.0 816.5,368.0H1077.9"/><path class="ad-edge-line" d="M619.2,308.0H800.5Q808.5,308.0 808.5,316.0V360.0Q808.5,368.0 816.5,368.0H1077.9"/></g><g class="ad-edge t-write" data-id="fulfillment--postgres" data-source="fulfillment" data-target="postgres"><path class="ad-edge-hit" d="M619.2,560.0H803.5a5,5 0 0,1 10.0,0H860.5Q868.5,560.0 868.5,552.0V261.6Q868.5,253.6 876.5,253.6H1077.9"/><path class="ad-edge-line" d="M619.2,560.0H803.5a5,5 0 0,1 10.0,0H860.5Q868.5,560.0 868.5,552.0V261.6Q868.5,253.6 876.5,253.6H1077.9"/></g><g class="ad-edge t-sync" data-id="fulfillment--sendgrid" data-source="fulfillment" data-target="sendgrid"><path class="ad-edge-hit" d="M619.2,608.0H780.5Q788.5,608.0 788.5,616.0V779.0Q788.5,787.0 796.5,787.0H1077.9"/><path class="ad-edge-line" d="M619.2,608.0H780.5Q788.5,608.0 788.5,616.0V779.0Q788.5,787.0 796.5,787.0H1077.9"/></g><g class="ad-edge t-event is-dotted" data-id="kafka--fulfillment" data-source="kafka" data-target="fulfillment"><path class="ad-edge-hit" d="M1077.9,508.0H873.5a5,5 0 0,0 -10.0,0H836.5Q828.5,508.0 828.5,516.0V576.0Q828.5,584.0 820.5,584.0H813.5a5,5 0 0,0 -10.0,0H619.2"/><path class="ad-edge-line" d="M1077.9,508.0H873.5a5,5 0 0,0 -10.0,0H836.5Q828.5,508.0 828.5,516.0V576.0Q828.5,584.0 820.5,584.0H813.5a5,5 0 0,0 -10.0,0H619.2"/></g><g class="ad-edge t-read" data-id="ledger-audit--postgres" data-source="ledger-audit" data-target="postgres"><path class="ad-edge-hit" d="M619.2,708.0H783.5a5,5 0 0,1 10.0,0H880.5Q888.5,708.0 888.5,700.0V280.8Q888.5,272.8 896.5,272.8H1077.9"/><path class="ad-edge-line" d="M619.2,708.0H783.5a5,5 0 0,1 10.0,0H880.5Q888.5,708.0 888.5,700.0V280.8Q888.5,272.8 896.5,272.8H1077.9"/></g><g class="ad-edge t-write" data-id="payments--postgres" data-source="payments" data-target="postgres"><path class="ad-edge-hit" d="M619.2,444.0H783.5a5,5 0 0,1 10.0,0H840.5Q848.5,444.0 848.5,436.0V242.4Q848.5,234.4 856.5,234.4H1077.9"/><path class="ad-edge-line" d="M619.2,444.0H783.5a5,5 0 0,1 10.0,0H840.5Q848.5,444.0 848.5,436.0V242.4Q848.5,234.4 856.5,234.4H1077.9"/></g><g class="ad-edge t-sync is-primary" data-id="api-gateway--payments" data-source="api-gateway" data-target="payments"><path class="ad-edge-hit" d="M521.2,356.0V412.0"/><path class="ad-edge-line" d="M521.2,356.0V412.0"/></g><g class="ad-edge t-sync is-primary" data-id="payments--stripe" data-source="payments" data-target="stripe"><path class="ad-edge-hit" d="M619.2,476.0H800.5Q808.5,476.0 808.5,484.0V685.0Q808.5,693.0 816.5,693.0H1077.9"/><path class="ad-edge-line" d="M619.2,476.0H800.5Q808.5,476.0 808.5,484.0V685.0Q808.5,693.0 816.5,693.0H1077.9"/></g><g class="ad-edge t-sync is-primary" data-id="web--api-gateway" data-source="web" data-target="api-gateway"><path class="ad-edge-hit" d="M264.1,508.0H341.2Q349.2,508.0 349.2,500.0V316.0Q349.2,308.0 357.2,308.0H423.2"/><path class="ad-edge-line" d="M264.1,508.0H341.2Q349.2,508.0 349.2,500.0V316.0Q349.2,308.0 357.2,308.0H423.2"/></g></g><g class="ad-labels"><g class="ad-edge-label" data-edge="api-gateway--kafka"><rect x="640.2" y="338.0" width="127.3" height="18.0" rx="4"/><text x="703.8" y="350.5">publishes order.placed</text></g><g class="ad-edge-label is-primary" data-edge="api-gateway--payments"><rect x="529.2" y="369.0" width="43.0" height="18.0" rx="4"/><text x="550.7" y="381.5">HTTP</text></g><g class="ad-edge-label" data-edge="api-gateway--postgres"><rect x="682.8" y="260.0" width="82.0" height="18.0" rx="4"/><text x="723.8" y="272.5">writes orders</text></g><g class="ad-edge-label" data-edge="api-gateway--redis"><rect x="893.2" y="344.0" width="87.9" height="18.0" rx="4"/><text x="937.2" y="356.5">reads &amp; writes</text></g><g class="ad-edge-label" data-edge="fulfillment--postgres"><rect x="702.8" y="536.0" width="82.0" height="18.0" rx="4"/><text x="743.8" y="548.5">writes orders</text></g><g class="ad-edge-label" data-edge="fulfillment--sendgrid"><rect x="666.2" y="614.0" width="75.2" height="18.0" rx="4"/><text x="703.8" y="626.5">sends email</text></g><g class="ad-edge-label" data-edge="kafka--fulfillment"><rect x="893.5" y="484.0" width="119.4" height="18.0" rx="4"/><text x="953.2" y="496.5">delivers order.placed</text></g><g class="ad-edge-label" data-edge="ledger-audit--postgres"><rect x="623.2" y="684.0" width="94.7" height="18.0" rx="4"/><text x="670.6" y="696.5">reads payments</text></g><g class="ad-edge-label" data-edge="payments--postgres"><rect x="684.2" y="420.0" width="99.4" height="18.0" rx="4"/><text x="733.8" y="432.5">writes payments</text></g><g class="ad-edge-label is-primary" data-edge="payments--stripe"><rect x="671.2" y="452.0" width="85.3" height="18.0" rx="4"/><text x="713.8" y="464.5">charges cards</text></g><g class="ad-edge-label is-primary" data-edge="web--api-gateway"><rect x="285.1" y="484.0" width="43.0" height="18.0" rx="4"/><text x="306.7" y="496.5">HTTP</text></g></g><g class="ad-nodes"><g class="ad-node b-trust is-focal has-evidence" data-id="api-gateway"><rect class="ad-card" x="423.2" y="260.0" width="196.0" height="96.0" rx="8.0"/><text class="ad-node-label" x="439.2" y="289.0">API Gateway</text><text class="ad-evidence-glyph" x="605.2" y="288.0">&lt;/&gt;</text><text class="ad-node-subtitle" x="439.2" y="307.0">HTTP service</text><rect class="ad-badge" x="439.2" y="320.0" width="150.2" height="20" rx="4"/><text class="ad-badge-text" x="447.2" y="334.0">TypeScript · Express</text></g><g class="ad-node b-trust has-evidence" data-id="fulfillment"><rect class="ad-card" x="423.2" y="536.0" width="196.0" height="96.0" rx="8.0"/><text class="ad-node-label" x="439.2" y="565.0">Fulfillment</text><text class="ad-evidence-glyph" x="605.2" y="564.0">&lt;/&gt;</text><text class="ad-node-subtitle" x="439.2" y="583.0">Background worker</text><rect class="ad-badge" x="439.2" y="596.0" width="56.3" height="20" rx="4"/><text class="ad-badge-text" x="447.2" y="610.0">Python</text></g><g class="ad-node b-trust has-evidence" data-id="ledger-audit"><rect class="ad-card" x="423.2" y="660.0" width="196.0" height="96.0" rx="8.0"/><text class="ad-node-label" x="439.2" y="689.0">Ledger Audit</text><text class="ad-evidence-glyph" x="605.2" y="688.0">&lt;/&gt;</text><text class="ad-node-subtitle" x="439.2" y="707.0">HTTP service</text><rect class="ad-badge" x="439.2" y="720.0" width="89.8" height="20" rx="4"/><text class="ad-badge-text" x="447.2" y="734.0">Rust · Axum</text></g><g class="ad-node b-trust has-evidence" data-id="payments"><rect class="ad-card" x="423.2" y="412.0" width="196.0" height="96.0" rx="8.0"/><text class="ad-node-label" x="439.2" y="441.0">Payments</text><text class="ad-evidence-glyph" x="605.2" y="440.0">&lt;/&gt;</text><text class="ad-node-subtitle" x="439.2" y="459.0">HTTP service</text><rect class="ad-badge" x="439.2" y="472.0" width="103.2" height="20" rx="4"/><text class="ad-badge-text" x="447.2" y="486.0">Go · net/http</text></g><g class="ad-node b-client has-evidence" data-id="web"><rect class="ad-card" x="68.1" y="460.0" width="196.0" height="96.0" rx="8.0"/><text class="ad-node-label" x="84.1" y="489.0">Web</text><text class="ad-evidence-glyph" x="250.1" y="488.0">&lt;/&gt;</text><text class="ad-node-subtitle" x="84.1" y="507.0">Web client</text><rect class="ad-badge" x="84.1" y="520.0" width="136.8" height="20" rx="4"/><text class="ad-badge-text" x="92.1" y="534.0">TypeScript · React</text></g><g class="ad-node b-storage has-evidence" data-id="postgres"><rect class="ad-card" x="1077.9" y="196.0" width="196.0" height="96.0" rx="8.0"/><text class="ad-node-label" x="1093.9" y="225.0">PostgreSQL</text><text class="ad-evidence-glyph" x="1259.9" y="224.0">&lt;/&gt;</text><text class="ad-node-subtitle" x="1093.9" y="243.0">Relational database</text><rect class="ad-badge" x="1093.9" y="256.0" width="89.8" height="20" rx="4"/><text class="ad-badge-text" x="1101.9" y="270.0">compose: db</text></g><g class="ad-node b-storage has-evidence" data-id="redis"><rect class="ad-card" x="1077.9" y="320.0" width="196.0" height="96.0" rx="8.0"/><text class="ad-node-label" x="1093.9" y="349.0">Redis</text><text class="ad-evidence-glyph" x="1259.9" y="348.0">&lt;/&gt;</text><text class="ad-node-subtitle" x="1093.9" y="367.0">Cache</text><rect class="ad-badge" x="1093.9" y="380.0" width="109.9" height="20" rx="4"/><text class="ad-badge-text" x="1101.9" y="394.0">compose: redis</text></g><g class="ad-node b-storage has-evidence" data-id="kafka"><rect class="ad-card" x="1077.9" y="444.0" width="196.0" height="96.0" rx="8.0"/><text class="ad-node-label" x="1093.9" y="473.0">Kafka</text><text class="ad-evidence-glyph" x="1259.9" y="472.0">&lt;/&gt;</text><text class="ad-node-subtitle" x="1093.9" y="491.0">Event bus</text><rect class="ad-badge" x="1093.9" y="504.0" width="109.9" height="20" rx="4"/><text class="ad-badge-text" x="1101.9" y="518.0">compose: kafka</text></g><g class="ad-node b-third has-evidence" data-id="stripe"><rect class="ad-card" x="1077.9" y="660.0" width="196.0" height="66.0" rx="8.0"/><text class="ad-node-label" x="1093.9" y="689.0">Stripe</text><text class="ad-evidence-glyph" x="1259.9" y="688.0">&lt;/&gt;</text><text class="ad-node-subtitle" x="1093.9" y="707.0">Payments API</text></g><g class="ad-node b-third has-evidence" data-id="sendgrid"><rect class="ad-card" x="1077.9" y="754.0" width="196.0" height="66.0" rx="8.0"/><text class="ad-node-label" x="1093.9" y="783.0">SendGrid</text><text class="ad-evidence-glyph" x="1259.9" y="782.0">&lt;/&gt;</text><text class="ad-node-subtitle" x="1093.9" y="801.0">Email delivery</text></g></g><g class="ad-legend"><line class="ad-rule" x1="48" y1="880" x2="1294.0" y2="880"/><g class="ad-edge ad-legend-sample t-sync"><path class="ad-edge-line" d="M48.0,904.0H78.0"/></g><text class="ad-legend-text" x="88.0" y="908.0">Sync call</text><g class="ad-edge ad-legend-sample t-event is-dotted"><path class="ad-edge-line" d="M163.4,904.0H193.4"/></g><text class="ad-legend-text" x="203.4" y="908.0">Event</text><g class="ad-edge ad-legend-sample t-read"><path class="ad-edge-line" d="M259.0,904.0H289.0"/></g><text class="ad-legend-text" x="299.0" y="908.0">Read</text><g class="ad-edge ad-legend-sample t-write"><path class="ad-edge-line" d="M350.4,904.0H380.4"/></g><text class="ad-legend-text" x="390.4" y="908.0">Write</text><g class="ad-edge ad-legend-sample t-sync is-primary"><path class="ad-edge-line" d="M443.2,904.0H473.2"/></g><text class="ad-legend-text" x="483.2" y="908.0">Primary path</text><rect class="ad-legend-focal" x="578.5" y="897.0" width="14" height="14" rx="3"/><text class="ad-legend-text" x="600.5" y="908.0">Focal point</text><text class="ad-evidence-glyph ad-legend-glyph" x="686.6" y="908.0">&lt;/&gt;</text><text class="ad-legend-text" x="712.6" y="908.0">Source evidence</text><text class="ad-footer" x="1294.0" y="908.0" text-anchor="end">polyglot-shop</text></g></g></svg>
